<?xml version="1.0" encoding="utf-8"?>
<!-- Generator: Adobe Illustrator 19.2.1, SVG Export Plug-In . SVG Version: 6.00 Build 0)  -->
<svg version="1.1" id="Layer_1" xmlns="http://www.w3.org/2000/svg" xmlns:xlink="http://www.w3.org/1999/xlink" x="0px" y="0px"
	 viewBox="0 0 494.9 284" style="enable-background:new 0 0 494.9 284;" xml:space="preserve">
<style type="text/css">
	.st0{fill:url(#SVGID_1_);}
	.st1{fill:url(#SVGID_2_);}
	.st2{fill:url(#SVGID_3_);}
	.st3{fill:url(#SVGID_4_);}
	.st4{fill:url(#SVGID_5_);}
	.st5{fill:url(#SVGID_6_);stroke:url(#SVGID_7_);stroke-miterlimit:10;}
	.st6{opacity:0.7;}
</style>
<linearGradient id="SVGID_1_" gradientUnits="userSpaceOnUse" x1="476.51" y1="105.5" x2="476.95" y2="105.5">
	<stop  offset="0" style="stop-color:#EDEDED"/>
	<stop  offset="0.5" style="stop-color:#AEAEAE"/>
	<stop  offset="1" style="stop-color:#EDEDED"/>
</linearGradient>
<path class="st0" d="M477,107.1c-0.2-1.1-0.3-2.1-0.4-3.2c0,0.3,0.1,0.7,0.1,1C476.8,105.6,476.8,106.3,477,107.1z"/>
<linearGradient id="SVGID_2_" gradientUnits="userSpaceOnUse" x1="477.95" y1="114.6" x2="478.42" y2="114.6">
	<stop  offset="0" style="stop-color:#EDEDED"/>
	<stop  offset="0.5" style="stop-color:#AEAEAE"/>
	<stop  offset="1" style="stop-color:#EDEDED"/>
</linearGradient>
<path class="st1" d="M478.4,115.9c-0.2-0.9-0.3-1.8-0.5-2.6c0.1,0.5,0.2,0.9,0.2,1.3C478.3,115.1,478.3,115.5,478.4,115.9z"/>
<linearGradient id="SVGID_3_" gradientUnits="userSpaceOnUse" x1="474.1" y1="68.65" x2="474.1" y2="68.65">
	<stop  offset="0" style="stop-color:#EDEDED"/>
	<stop  offset="0.5" style="stop-color:#AEAEAE"/>
	<stop  offset="1" style="stop-color:#EDEDED"/>
</linearGradient>
<path class="st2" d="M474.1,67.9c0,0.5,0,1,0,1.5c0-0.3,0-0.5,0-0.8V67.9z"/>
<linearGradient id="SVGID_4_" gradientUnits="userSpaceOnUse" x1="474.44" y1="81" x2="474.5" y2="81">
	<stop  offset="0" style="stop-color:#EDEDED"/>
	<stop  offset="0.5" style="stop-color:#AEAEAE"/>
	<stop  offset="1" style="stop-color:#EDEDED"/>
</linearGradient>
<path class="st3" d="M474.5,81.6c0-0.4,0-0.7-0.1-1.1v-0.1C474.5,80.8,474.5,81.2,474.5,81.6z"/>
<linearGradient id="SVGID_5_" gradientUnits="userSpaceOnUse" x1="477.53" y1="112.1" x2="477.95" y2="112.1">
	<stop  offset="0" style="stop-color:#EDEDED"/>
	<stop  offset="0.5" style="stop-color:#AEAEAE"/>
	<stop  offset="1" style="stop-color:#EDEDED"/>
</linearGradient>
<path class="st4" d="M478,113.3c-0.1-0.4-0.2-0.8-0.2-1.2c-0.1-0.4-0.1-0.8-0.2-1.2C477.7,111.7,477.8,112.5,478,113.3z"/>
<g>
	
		<linearGradient id="SVGID_6_" gradientUnits="userSpaceOnUse" x1="7.9328" y1="145.9586" x2="485.3045" y2="145.9586" gradientTransform="matrix(0.9997 -2.577947e-02 -2.577947e-02 -0.9997 3.2486 294.2557)">
		<stop  offset="0" style="stop-color:#C9C9C9"/>
		<stop  offset="1" style="stop-color:#8C8C8C"/>
	</linearGradient>
	
		<linearGradient id="SVGID_7_" gradientUnits="userSpaceOnUse" x1="7.4312" y1="145.9586" x2="485.8045" y2="145.9586" gradientTransform="matrix(0.9997 -2.577947e-02 -2.577947e-02 -0.9997 3.2486 294.2557)">
		<stop  offset="0" style="stop-color:#C9C9C9"/>
		<stop  offset="1" style="stop-color:#8C8C8C"/>
	</linearGradient>
	<path class="st5" d="M472.7,126.7l-1.3-7.5c-3-17.2-7.3-45.5-9.4-62.9c0,0-5.4-43.6-41.8-37.9c-34.6,5.4-68.9,56.3-68.9,56.3
		c-9.7,14.6-31.9,27.9-49.4,29.7c0,0-80.3,8-150,13.4c-107.7,8.2-110.7,9.4-110.7,9.4c-16.5,5.5-30.7,18-31.3,27.8
		c-0.6,9.5-1.3,25.7-1.4,36.1c0,0,0,0,2.5,12.5c1.9,12.6,1.9,12.6,1.9,12.6c3.7,10,9.9,25.4,13.8,34.4c3.8,9,21.2,16,38.9,15.5
		c0,0,3.2,0.1,107.3-28.8c67.4-18.6,145.3-38.4,145.3-38.4c17-4.3,42.4,0.6,56.5,11.1c0,0,49.6,36.2,84,29.5
		c36.2-7,26.4-49.8,26.4-49.8C481.3,172,475.8,143.9,472.7,126.7z M434.1,134.4c0.5,2.8,5.6,19,9.4,29.7s3.7,32-2.2,33.6
		c-5.8,1.7-16.3,0.9-22.8-1.2s-16.8-5.8-23-7.9s-14-8.2-17.9-13.6c-3.9-5.5,1.4-21.6,0.5-26.6s-2.4-13.8-3.3-18.8
		c-0.9-5-4.6-13.4-8.5-18.9s6.2-20.1,11.2-24.3c5.1-4.1,13.6-10.8,19-15.3c5.4-4.2,14.7-8.4,21-8.9c6-0.7,13.4,19.3,13.4,30.6
		c0.4,11.2,0.4,22.5,0.5,25.1C431.7,121,433.6,131.6,434.1,134.4z"/>
	<g class="st6">
		<path d="M68.5,175.8c1.9-0.4,3.7-0.6,5.5-0.6c2.4,0,3.7,0.7,4,2.2c0.1,0.5,0.1,0.9-0.1,1.2c-0.2,0.3-0.7,0.8-1.5,1.4
			c-0.7,0.5-1,1.5-1,2.8c0,1.3,0.4,3.9,1.2,7.6c1.3,6.3,2.3,10.2,2.9,11.7c0.2,0.5,0.5,0.8,0.8,1c0.3,0.2,0.8,0.4,1.4,0.6
			c1.2,0.3,1.9,0.9,2.1,1.8c0.3,1.3-0.6,2.4-2.5,3.4c-2.1,1-4.7,1.8-7.9,2.4c-5.4,1.1-8.3,0.6-8.8-1.4c-0.2-0.7,0.2-1.6,1.2-2.4
			c0.7-0.7,1.1-1.4,1-2.3c-0.1-2-0.7-6-2-12.2c-0.9-4.3-1.6-6.9-2.3-8c-0.4-0.6-1.1-1.1-2-1.5c-0.8-0.3-1.3-0.6-1.6-0.8
			c-0.3-0.3-0.5-0.6-0.6-1.1c-0.1-0.7,0.1-1.4,0.7-1.9c0.6-0.6,1.7-1.2,3.4-1.9C64.3,176.9,66.3,176.3,68.5,175.8z"/>
		<path d="M87.7,195.6l-2.7-13.1c-0.3-1.7-0.7-2.7-1-3.2c-0.3-0.4-1-0.6-2.1-0.7c-1.6-0.1-2.5-0.7-2.7-1.8c-0.2-0.7,0-1.4,0.6-1.9
			c0.5-0.5,1.4-0.9,2.6-1.2c0.4-0.1,1.4-0.3,3-0.5l1.5-0.3c2.8-0.6,4.4-0.9,4.8-1.1c0.5-0.1,2.1-0.6,5-1.5c0.9-0.3,1.8-0.5,2.6-0.7
			c2.7-0.6,5.3-0.5,7.6,0.2c4.1,1.2,6.6,3.8,7.4,8c0.7,3.4,0,6.4-2.2,8.9c-2,2.4-4.8,4-8.3,4.7c-0.9,0.2-2,0.3-3.3,0.5
			c-0.7,0.1-1.1,0.2-1.3,0.2c-0.5,0.1-0.7,0.4-0.6,1l0,0.1l1,4c0.2,0.8,0.5,1.4,0.8,1.7c0.3,0.3,0.9,0.6,1.8,0.9
			c1.2,0.4,1.9,0.9,2,1.6c0.2,1-0.4,2-1.9,2.9c-1.5,0.9-3.7,1.6-6.6,2.2c-6.1,1.3-9.4,0.8-9.9-1.3c-0.1-0.5,0-0.9,0.2-1.2
			c0.2-0.3,0.8-0.8,1.6-1.5c0.5-0.4,0.8-0.9,0.8-1.5C88.7,200.6,88.3,198.7,87.7,195.6z M95.6,177.1l1.7,8.5c0.1,0.6,0.4,1,0.7,1.1
			c0.5,0.1,1.2,0.1,1.9,0c1.1-0.2,2-0.7,2.6-1.5c0.9-1.1,1.1-2.7,0.7-4.8c-0.4-2.2-1.4-3.6-2.9-4.3c-0.9-0.5-1.9-0.6-3.1-0.3
			C96.1,176,95.5,176.4,95.6,177.1z"/>
		<path d="M145.7,178l6.8,9.1c0.6,0.8,1.1,1.4,1.5,1.6c0.4,0.2,0.9,0.3,1.5,0.3c1.2-0.1,2,0.4,2.2,1.4c0.2,1.2-0.3,2.2-1.7,3.1
			c-1.4,0.8-3.7,1.6-7,2.3c-3.8,0.8-6.6,1.2-8.4,1.2c-0.9,0-1.6-0.1-2.2-0.5c-0.6-0.4-0.9-0.9-1.1-1.5c-0.1-0.5-0.1-0.9,0.1-1.2
			c0.2-0.3,0.6-0.7,1.3-1.1c0.7-0.4,1-1,0.9-1.6c-0.2-1.1-1-1.6-2.4-1.6c-1.5,0.1-3.5,0.4-6.2,1c-2.2,0.5-3.5,0.9-3.9,1.2
			c-0.2,0.2-0.4,0.6-0.5,1c-0.1,0.5-0.1,0.9,0,1.3c0.1,0.4,0.2,0.6,0.4,0.7c0.2,0.1,0.7,0.2,1.5,0.3c1.1,0.1,1.7,0.6,1.9,1.5
			c0.4,2-1.8,3.5-6.5,4.4c-2.7,0.6-4.7,0.8-6,0.7c-1.2-0.1-2-0.8-2.2-1.9c-0.1-0.5-0.1-0.9,0.1-1.3c0.2-0.3,0.6-0.7,1.2-1.1
			c1-0.6,1.7-1.3,2.1-2.1c0.4-0.8,0.9-2.4,1.5-4.9l1.9-8.4c0.7-3.1,1.1-5.4,1.3-6.9c0.2-1.5,0.1-2.9-0.2-4.3c-0.3-1.4-0.4-2.4-0.3-3
			c0-0.6,0.3-1.2,0.7-1.8c0.9-1.4,2.2-2.3,4-2.6c1.7-0.3,3.4,0,5.2,1C135.7,165.6,139.9,170.2,145.7,178z M129,184.7l4.9-1
			c0.9-0.2,1.3-0.5,1.2-0.9c-0.1-0.5-1-1.8-2.7-3.7c-0.8-0.9-1.3-1.4-1.7-1.7c-0.4-0.3-0.7-0.4-1-0.3c-0.6,0.1-1,0.8-1.2,2
			c0,0.2-0.2,0.8-0.4,1.9c-0.3,1.8-0.5,2.9-0.4,3.3C127.8,184.7,128.3,184.9,129,184.7z"/>
		<path d="M183.3,164.2l2.3,11.4c0.5,2.6,1.1,4.2,1.7,4.8c0.7,0.8,2,1,3.7,0.6c1.9-0.4,3.3-1.1,4.2-2.2c0.9-1.1,1.4-2.5,1.5-4.4
			c0-1.1,0.5-1.8,1.4-2c0.9-0.2,1.7,0.1,2.4,0.7c0.7,0.7,1.2,1.6,1.5,2.9c0.4,2.1,0.1,4.4-0.9,7.1c-0.3,0.8-0.6,1.4-1,1.8
			c-0.3,0.3-0.7,0.6-1.2,0.7l-5.7,0.5l-17.4,3.6c-1.1,0.2-2,0.3-2.5,0.1c-0.8-0.2-1.2-0.7-1.4-1.5c-0.1-0.5-0.1-0.8,0.1-1.1
			c0.2-0.3,0.7-0.7,1.4-1.3c0.9-0.6,1.3-1.4,1.4-2.3c0.1-0.7-0.2-2.7-0.9-6c-0.3-1.5-0.8-3.7-1.5-6.6c-0.6-2.7-1.1-4.8-1.4-6.2
			c-0.3-1.3-0.6-2.2-0.9-2.7c-0.3-0.4-0.8-0.7-1.5-0.8c-1.2-0.2-1.9-0.3-2.3-0.5c-0.6-0.3-1-0.7-1.1-1.3c-0.2-1.2,0.6-2.3,2.4-3.4
			c1.6-0.9,3.8-1.6,6.7-2.2c3.2-0.7,5.7-1,7.3-1c2.2,0,3.4,0.7,3.6,2.1c0.1,0.5,0.1,1-0.2,1.3c-0.2,0.3-0.8,0.8-1.8,1.5
			c-0.6,0.4-0.9,1-0.9,1.7C182.6,160.4,182.8,161.9,183.3,164.2z"/>
		<path d="M214.5,155.9c3-0.6,5.9-0.4,8.5,0.7c1.9,0.8,3.5,2,4.9,3.6c1.4,1.7,2.3,3.6,2.8,5.6c0.7,3.6-0.3,7-3.1,10.2
			c-2.7,3.1-6,5-10.1,5.8c-4,0.8-7.4,0.3-10.3-1.4c-2.8-1.7-4.6-4.3-5.3-7.8c-0.8-3.9,0-7.4,2.4-10.5
			C206.7,158.9,210.2,156.8,214.5,155.9z M213.7,162.1c-0.7,0.2-1.3,0.5-1.6,1.2c-0.3,0.6-0.4,1.4-0.2,2.3c0.2,1,0.7,2.3,1.4,4
			c0.7,1.6,1.5,3.1,2.3,4.3c0.8,1.3,1.8,1.8,2.9,1.5c1.5-0.3,2-1.4,1.6-3.3c-0.3-1.4-0.8-2.9-1.5-4.6c-0.7-1.7-1.5-3.1-2.2-4.1
			C215.6,162.4,214.7,161.9,213.7,162.1z"/>
		<path d="M256.4,155.5l-3.9,13.9c-0.6,2.1-1.2,3.7-1.7,4.6s-1.2,1.4-2,1.6c-0.8,0.2-1.5,0-2.1-0.5c-1.2-0.9-2.4-2-3.5-3.3l-9.8-12
			c-0.5-0.7-1-1.1-1.4-1.4c-0.4-0.3-1-0.4-1.6-0.4c-1.3-0.1-2.1-0.7-2.3-1.7c-0.2-1,0.4-1.9,1.9-2.7c1.5-0.8,3.9-1.5,7.3-2.2
			c2.8-0.6,4.9-0.8,6.4-0.7c1.4,0.1,2.2,0.6,2.4,1.5c0.1,0.6-0.1,1.2-0.6,1.9c-0.3,0.4-0.5,0.8-0.6,1c-0.1,0.2-0.1,0.5,0,0.7
			c0.1,0.6,0.7,1.4,1.7,2.6c1,1.1,1.8,1.6,2.4,1.5c0.4-0.1,0.7-0.3,0.9-0.7c0.2-0.4,0.5-1.3,0.9-2.7c0.3-1.1,0.4-1.9,0.3-2.4
			c-0.1-0.4-0.4-0.8-1.1-1.3c-0.7-0.5-1.1-1-1.2-1.5c-0.2-0.8,0.2-1.5,1.2-2c1-0.6,2.7-1.1,5.1-1.6c3.4-0.7,5.2-0.3,5.5,1.1
			c0.2,0.8-0.3,1.6-1.4,2.2c-0.9,0.5-1.5,0.9-1.7,1.4C257.2,153,256.9,153.9,256.4,155.5z"/>
		<path d="M285,155.7l-11.7,2.4c-0.5,0.1-0.7,0.4-0.6,0.8c0.2,1.1,1,2,2.4,2.7c1.4,0.7,2.7,0.9,4.1,0.7c0.8-0.2,1.7-0.5,2.6-1
			c0.9-0.5,1.6-1,2.2-1.6c0.5-0.5,0.9-0.8,1.2-0.9c0.4-0.1,0.9,0.1,1.4,0.5c0.5,0.4,0.8,1,1,1.5c0.2,1.2-0.3,2.5-1.5,3.9
			c-2.2,2.5-5.1,4.1-8.5,4.8c-3.5,0.7-6.6,0.3-9.4-1.2c-1.4-0.8-2.5-1.8-3.6-3c-1.4-1.7-2.3-3.6-2.7-5.6c-0.6-2.8-0.2-5.5,1-8
			c1.1-2.2,2.6-4,4.7-5.5c1.5-1.1,3.3-1.8,5.3-2.2c3.2-0.6,6-0.3,8.6,1c1.3,0.7,2.4,1.5,3.3,2.6c1.1,1.2,1.7,2.5,2,3.8
			c0.2,1.1,0.2,2-0.1,2.8C286.2,155.1,285.7,155.6,285,155.7z M273,153.3l2.5-0.5c1.1-0.2,1.5-0.8,1.3-1.8c-0.2-0.9-0.6-1.6-1.2-2
			c-0.6-0.5-1.4-0.6-2.2-0.4c-0.9,0.2-1.6,0.7-2,1.5c-0.4,0.8-0.5,1.5-0.3,2.2c0.1,0.5,0.3,0.8,0.6,1
			C271.9,153.4,272.4,153.5,273,153.3z"/>
		<path d="M297.9,139c0.9-0.2,1.4-0.2,1.7,0c0.2,0.2,0.6,1,1,2.3c0.2,0.7,0.6,1,1,0.9c0.3-0.1,0.6-0.4,0.8-0.9
			c0.9-2.3,2.4-3.7,4.6-4.2c1.5-0.3,2.8-0.1,4,0.7c0.6,0.4,1.1,0.9,1.5,1.6c0.5,0.7,0.8,1.4,0.9,2.1c0.2,0.8,0.1,1.6-0.1,2.5
			c-0.2,0.9-0.5,1.7-1,2.3c-0.9,1.2-2.1,2-3.6,2.3c-0.8,0.2-1.6,0.2-2.2,0c-0.6-0.2-1.5-0.6-2.6-1.4c-0.4-0.3-0.8-0.4-1.1-0.3
			c-0.5,0.1-0.7,0.4-0.7,1c0,0.6,0.1,1.7,0.5,3.3c0.5,2.5,1,4.2,1.3,5.1c0.2,0.5,0.5,0.8,0.7,0.9c0.2,0.1,0.7,0.3,1.5,0.3
			c1.6,0.1,2.5,0.8,2.7,1.9c0.1,0.7,0,1.3-0.4,1.9c-0.4,0.6-0.9,1.1-1.7,1.4c-1.5,0.7-3.8,1.3-6.9,1.9c-2.9,0.6-5.2,0.8-6.9,0.6
			c-1.5-0.2-2.3-0.9-2.5-2c-0.2-0.9,0.2-1.7,1-2.6c0.4-0.4,0.7-0.8,0.8-1.1c0.1-0.3,0.2-0.7,0.2-1.1c0-1.6-0.5-4.4-1.3-8.5
			c-0.2-0.7-0.3-1.3-0.6-1.6c-0.2-0.3-0.6-0.5-1.2-0.6c-1.3-0.2-2-0.8-2.2-1.7c-0.2-0.8,0.1-1.6,0.8-2.3c0.7-0.7,1.9-1.6,3.7-2.5
			C294,140.2,296.1,139.4,297.9,139z"/>
		<path d="M322.9,133.7c0.8-0.2,2.2-0.3,4.2-0.3c0.4,0,0.7,0,1-0.1c0.3-0.1,0.8-0.3,1.6-0.8c0.4-0.2,0.7-0.4,0.9-0.4
			c0.8-0.2,1.6,0.2,2.6,1c0.8,0.7,1.5,1.4,2.1,2.2c0.6,0.8,1,1.6,1.1,2.3c0.1,0.7,0,1.3-0.4,1.8c-0.4,0.5-0.9,0.9-1.6,1
			c-0.6,0.1-1.1,0.1-1.6-0.1c-0.5-0.2-1.4-0.7-2.6-1.4c-1.3-0.8-2.3-1.1-3-1c-0.5,0.1-0.8,0.3-1.1,0.8s-0.4,0.8-0.3,1.3
			c0.2,0.8,1.1,1.4,2.8,1.8c3.1,0.7,5.5,1.6,7.3,2.8c1.5,1,2.5,2.4,2.8,4.2c0.5,2.3-0.1,4.4-1.9,6.4c-1.5,1.7-3.5,2.8-6,3.3
			c-0.6,0.1-1.8,0.3-3.6,0.4c-1.6,0.1-2.6,0.2-2.8,0.3c-0.2,0-0.5,0.1-0.7,0.2c-0.5,0.2-0.8,0.3-1,0.3c-0.8,0.2-1.4,0.1-2-0.2
			c-0.8-0.5-1.6-1.3-2.5-2.5c-0.9-1.2-1.4-2.3-1.6-3.2c-0.3-1.5,0.1-2.4,1.3-2.7c0.5-0.1,0.9,0,1.4,0.2c0.5,0.2,1.4,0.9,3,1.9
			c0.8,0.6,1.5,1,2,1.2c0.5,0.2,1,0.2,1.5,0.1c0.5-0.1,1-0.3,1.2-0.7c0.3-0.4,0.4-0.8,0.3-1.3c-0.2-0.7-0.9-1.3-2.3-1.6
			c-2.9-0.8-5.2-1.7-6.6-2.9c-1.5-1.2-2.4-2.6-2.8-4.5c-0.4-2-0.1-3.8,0.8-5.5C317.8,135.8,320,134.3,322.9,133.7z"/>
	</g>
</g>
</svg>
